<svg id="Layer_1" data-name="Layer 1" xmlns="http://www.w3.org/2000/svg" viewBox="0 0 9 25.78"><defs><style>.cls-1{fill:none;stroke:#b5bcc9;stroke-linecap:round;stroke-width:0.39px;stroke-dasharray:1.54;}</style></defs><line id="Line_82" data-name="Line 82" class="cls-1" x1="4.53" y1="14.77" x2="4.53" y2="25.58"/><path id="Path_18971" data-name="Path 18971" d="M6.61,2.11a.53.53,0,0,1-.53-.53h0v-1A.53.53,0,0,1,6.61,0a.52.52,0,0,1,.52.53V1.58a.52.52,0,0,1-.52.53Z"/><g id="Group_979" data-name="Group 979"><path id="Path_18972" data-name="Path 18972" d="M8,1.06H7.66v.52a1.06,1.06,0,1,1-2.11,0V1.06H3.44v.52a1.05,1.05,0,1,1-2.1,0V1.06H1A1,1,0,0,0,0,2V3.2H9V2A1,1,0,0,0,8,1.06Z"/></g><path id="Path_18973" data-name="Path 18973" d="M2.39,2.11a.53.53,0,0,1-.53-.53h0v-1A.53.53,0,0,1,2.39,0a.53.53,0,0,1,.53.53h0V1.58A.53.53,0,0,1,2.39,2.11Z"/><path id="Path_18974" data-name="Path 18974" d="M0,3.73V8A1,1,0,0,0,1,9H8A1,1,0,0,0,9,8V3.73ZM4.78,7.15a1.06,1.06,0,0,1-2.1.15.76.76,0,0,1,0-.15.26.26,0,0,1,.26-.26.26.26,0,0,1,.26.26s0,0,0,.07a.53.53,0,0,0,.59.45.52.52,0,0,0,.45-.59.53.53,0,0,0-.52-.46.26.26,0,1,1,0-.52.53.53,0,1,0-.52-.63.26.26,0,1,1-.51-.11,1,1,0,0,1,1.23-.83,1.06,1.06,0,0,1,.84,1.24,1.1,1.1,0,0,1-.34.59A1,1,0,0,1,4.78,7.15Zm1.55.79a.27.27,0,1,1-.53,0h0V5.05H5.39a.27.27,0,0,1,0-.53h.68a.26.26,0,0,1,.26.26h0Z"/></svg>