<svg id="Layer_1" data-name="Layer 1" xmlns="http://www.w3.org/2000/svg" viewBox="0 0 9 24.16"><defs><style>.cls-1{fill:none;stroke:#b5bcc9;stroke-linecap:round;stroke-width:0.39px;stroke-dasharray:1.54;}</style></defs><path id="Path_18971" data-name="Path 18971" d="M6.61,17.27a.53.53,0,0,1-.53-.53h0v-1a.53.53,0,0,1,.53-.53.52.52,0,0,1,.52.53v1a.52.52,0,0,1-.52.53Z"/><path id="Path_18972" data-name="Path 18972" d="M8,16.22H7.66v.52a1.06,1.06,0,1,1-2.11,0v-.52H3.44v.52a1.05,1.05,0,1,1-2.1,0v-.52H1a1,1,0,0,0-1,1v1.18H9V17.18A1,1,0,0,0,8,16.22Z"/><path id="Path_18973" data-name="Path 18973" d="M2.39,17.27a.53.53,0,0,1-.53-.53h0v-1a.53.53,0,0,1,1.06,0h0v1A.53.53,0,0,1,2.39,17.27Z"/><path id="Path_18974" data-name="Path 18974" d="M0,18.89v4.3a1,1,0,0,0,1,1H8a1,1,0,0,0,1-1v-4.3Zm4.78,3.42a1.06,1.06,0,0,1-2.1.15.76.76,0,0,1,0-.15.26.26,0,0,1,.26-.26.26.26,0,0,1,.26.26s0,.05,0,.07a.53.53,0,0,0,.59.45.52.52,0,0,0,.45-.59.53.53,0,0,0-.52-.46.26.26,0,0,1-.26-.26.26.26,0,0,1,.26-.26.53.53,0,1,0-.52-.63.27.27,0,0,1-.31.21.26.26,0,0,1-.2-.31,1,1,0,0,1,1.23-.84,1.06,1.06,0,0,1,.84,1.24,1.1,1.1,0,0,1-.34.59A1,1,0,0,1,4.78,22.31Zm1.55.8a.27.27,0,0,1-.53,0h0v-2.9H5.39a.27.27,0,0,1,0-.53h.68a.26.26,0,0,1,.26.26h0Z"/><line id="Line_83" data-name="Line 83" class="cls-1" x1="4.53" y1="0.19" x2="4.53" y2="11.01"/></svg>