<?xml version="1.0" encoding="utf-8"?>
<!-- Generator: Adobe Illustrator 24.1.2, SVG Export Plug-In . SVG Version: 6.00 Build 0)  -->
<svg version="1.1" id="Layer_1" xmlns="http://www.w3.org/2000/svg" xmlns:xlink="http://www.w3.org/1999/xlink" x="0px" y="0px"
	 viewBox="0 0 11.5 26.1" style="enable-background:new 0 0 11.5 26.1;" xml:space="preserve">
<style type="text/css">
	.st0{fill:none;stroke:#B5BCC9;stroke-width:0.3862;stroke-linecap:round;stroke-dasharray:1.5447;}
</style>
<g id="school-bus-front" transform="translate(40 250.614)">
	<path id="Path_18970" d="M-39.6-247.7h0.4v2.2h-0.4c-0.2,0-0.4-0.2-0.4-0.4c0,0,0,0,0,0v-1.4C-40-247.6-39.8-247.7-39.6-247.7z
		 M-28.8-247.7h-0.4v2.2h0.4c0.2,0,0.4-0.2,0.4-0.4c0,0,0,0,0,0v-1.4C-28.5-247.6-28.6-247.7-28.8-247.7z M-29.9-248.5v6.5
		c0,0.4-0.3,0.7-0.7,0.7v0.7c0,0.4-0.3,0.7-0.7,0.7c0,0,0,0,0,0h-0.7c-0.4,0-0.7-0.3-0.7-0.7v-0.7h-2.9v0.7c0,0.4-0.3,0.7-0.7,0.7
		h-0.7c-0.4,0-0.7-0.3-0.7-0.7v-0.7c-0.4,0-0.7-0.3-0.7-0.7v-6.5c0-1.2,1-2.2,2.2-2.2l0,0h4.3C-30.9-250.6-29.9-249.6-29.9-248.5z
		 M-35.7-249.2h2.9v-0.7h-2.9V-249.2z M-36.4-242.7c0-0.4-0.3-0.7-0.7-0.7c-0.4,0-0.7,0.3-0.7,0.7c0,0.4,0.3,0.7,0.7,0.7l0,0
		C-36.7-242-36.4-242.3-36.4-242.7C-36.4-242.7-36.4-242.7-36.4-242.7z M-30.6-242.7c0-0.4-0.3-0.7-0.7-0.7c-0.4,0-0.7,0.3-0.7,0.7
		c0,0.4,0.3,0.7,0.7,0.7l0,0C-31-242-30.6-242.3-30.6-242.7C-30.6-242.7-30.6-242.7-30.6-242.7L-30.6-242.7z M-30.6-248.5h-7.2v4.3
		h7.2L-30.6-248.5L-30.6-248.5z"/>
</g>
<line id="Line_82" class="st0" x1="5.8" y1="15.1" x2="5.8" y2="25.9"/>
</svg>
