<svg id="Layer_1" data-name="Layer 1" xmlns="http://www.w3.org/2000/svg" viewBox="0 0 9 25.78"><path d="M3.81,7.81H.32c-.24,0-.29,0-.29-.29V6.26C0,6,.09,6,.32,6H.68a.6.6,0,0,0,.64-.56.59.59,0,0,0-.55-.64h0a3.09,3.09,0,0,0-.43,0c-.26,0-.31,0-.31-.3V3.24C0,3,0,3,.32,2.93a.6.6,0,0,0,.19-.06l4-1.65L7.16.09A.25.25,0,0,1,7.51.2c.18.46.35.89.52,1.29a.22.22,0,0,1-.09.3l-.05,0L7.52,2a.59.59,0,0,0-.3.77.25.25,0,0,0,.28.19H8.7c.17,0,.27.06.27.24V4.53a.22.22,0,0,1-.19.23h-.5a.61.61,0,0,0-.53.63.6.6,0,0,0,.6.57h.3C8.91,6,9,6,9,6.27v1.2c0,.31,0,.34-.34.34ZM8.56,6.39a1.12,1.12,0,0,1-1-.4.82.82,0,0,1-.2-.65,1.32,1.32,0,0,1,.18-.55A1.06,1.06,0,0,1,8,4.44a2.85,2.85,0,0,1,.58-.12v-1H.44v1a1.11,1.11,0,0,1,1,.4,1.15,1.15,0,0,1,.2.7c0,.56-.43.88-1.2,1v1H8.56ZM6.83,2.92a1.09,1.09,0,0,1,.66-1.41.16.16,0,0,1,.09,0V1.36A8.34,8.34,0,0,1,7.2.56L1.56,2.88h0Z"/><path d="M5.12,4.56H6.26c.14,0,.26,0,.27-.2s-.12-.21-.26-.21H4c-.14,0-.26,0-.25.21s.12.2.26.2Z"/><path d="M5.11,5.17H4c-.15,0-.28,0-.27.21s.12.2.26.2h2.3c.14,0,.26,0,.27-.21s-.13-.2-.28-.2Z"/><path d="M5.09,6.19H4c-.14,0-.27,0-.27.19s.12.21.27.21H6.25c.14,0,.27,0,.28-.19s-.13-.22-.28-.21Z"/><path d="M2.47,4.16v.21s.13.16.2.17.16-.1.18-.17a1,1,0,0,0,0-.43.29.29,0,0,0-.19-.18.18.18,0,0,0-.2.18v.22Z"/><path d="M2.48,5.38V5.6c0,.06.13.16.19.16a.26.26,0,0,0,.19-.16,1.14,1.14,0,0,0,0-.45A.26.26,0,0,0,2.68,5a.18.18,0,0,0-.2.17A.88.88,0,0,0,2.48,5.38Z"/><path d="M2.87,6.58a.81.81,0,0,0,0-.22.3.3,0,0,0-.19-.16.23.23,0,0,0-.18.15,1.34,1.34,0,0,0,0,.49A.24.24,0,0,0,2.68,7c.07,0,.15-.08.19-.16A1,1,0,0,0,2.87,6.58Z"/></svg>