<?xml version="1.0" encoding="utf-8"?>
<!-- Generator: Adobe Illustrator 26.3.0, SVG Export Plug-In . SVG Version: 6.00 Build 0)  -->
<svg version="1.1" id="Layer_1" xmlns="http://www.w3.org/2000/svg" xmlns:xlink="http://www.w3.org/1999/xlink" x="0px" y="0px"
	 viewBox="0 0 7.8 26.1" style="enable-background:new 0 0 7.8 26.1;" xml:space="preserve">
<style type="text/css">
	.st0{fill:none;stroke:#B5BCC9;stroke-width:0.39;stroke-linecap:round;stroke-dasharray:1.54;}
</style>
<g id="Group_978">
	<path id="Path_18969" d="M3.9,15.2L3.9,15.2c-1.9,0-3.5,1.6-3.5,3.5l0,0c0,0.7,0.2,1.3,0.5,1.8l2.3,3.9c0.2,0.2,0.4,0.4,0.7,0.4
		c0.3,0,0.6-0.1,0.7-0.4l2.3-3.9c0.3-0.6,0.5-1.2,0.5-1.8C7.4,16.8,5.8,15.2,3.9,15.2L3.9,15.2z M3.9,19.8c-0.7,0-1.3-0.6-1.3-1.3
		c0-0.7,0.6-1.3,1.3-1.3c0.7,0,1.3,0.6,1.3,1.3c0,0,0,0,0,0C5.2,19.2,4.6,19.8,3.9,19.8z"/>
</g>
<line id="Line_83" class="st0" x1="3.5" y1="0.2" x2="3.5" y2="11"/>
</svg>
