<svg id="Layer_1" data-name="Layer 1" xmlns="http://www.w3.org/2000/svg" viewBox="0 0 9 25.78"><path d="M4.5,9.34a.91.91,0,0,1-.68-1.55.89.89,0,0,1,.64-.25h3.4a.55.55,0,0,0,.4-.93.59.59,0,0,0-.4-.16H3.75L3,7.8a.16.16,0,0,1-.07.07H2.73a.16.16,0,0,1-.07-.07L.61,4.25a2.57,2.57,0,0,1-.28-.63,2.83,2.83,0,0,1-.1-.71h0a2.5,2.5,0,0,1,.2-1A2.69,2.69,0,0,1,1,1.08,2.7,2.7,0,0,1,1.81.52a2.62,2.62,0,0,1,1.91,0A2.5,2.5,0,0,1,4.49,1a2.62,2.62,0,0,1,.57.71,2.5,2.5,0,0,1,.3.87h0v.35a2.5,2.5,0,0,1-.1.72A2.47,2.47,0,0,1,5,4.27H5L4.3,5.51l-.06.07h-.1A.2.2,0,0,1,4,5.4H4l.73-1.23A2.59,2.59,0,0,0,5,3.52a1.81,1.81,0,0,0,.1-.61V2.58H5a2.14,2.14,0,0,0-.22-.69,2.3,2.3,0,0,0-.4-.61A2.24,2.24,0,0,0,3.8.9,2.42,2.42,0,0,0,3.09.7H2.82A2.11,2.11,0,0,0,2,.88a2.25,2.25,0,0,0-.71.47,2.31,2.31,0,0,0-.49.71,2.27,2.27,0,0,0-.17.86h0a2.15,2.15,0,0,0,.09.61,2,2,0,0,0,.25.55l1.9,3.28L3.51,6.2a.27.27,0,0,1,.07-.08H7.86a.91.91,0,0,1,.65,1.54h0a.87.87,0,0,1-.64.23H4.5a.54.54,0,0,0-.38.15A.59.59,0,0,0,4,8.44.55.55,0,0,0,4.5,9H5a.18.18,0,0,1,0,.36ZM1.84,3.88A1.36,1.36,0,0,1,1.84,2a1.38,1.38,0,0,1,1-.41,1.4,1.4,0,0,1,1,.41,1.33,1.33,0,0,1,.4,1,1.21,1.21,0,0,1,0,.38,1.7,1.7,0,0,1-.1.32h0a1.42,1.42,0,0,1-.55.51,1.24,1.24,0,0,1-.68.18A1.3,1.3,0,0,1,1.84,3.88Zm.3-1.65a1,1,0,0,0,0,1.4.94.94,0,0,0,.72.3,1,1,0,0,0,1-1h0a1,1,0,0,0-.3-.68,1,1,0,0,0-.72-.3A.92.92,0,0,0,2.14,2.23ZM4.55,9.39a.18.18,0,0,1,0-.36H5a.18.18,0,1,1,0,.36Zm1,0a.16.16,0,0,1-.13-.06.2.2,0,0,1,0-.25A.19.19,0,0,1,5.51,9H6a.18.18,0,0,1,.12.05.2.2,0,0,1,0,.25.17.17,0,0,1-.12,0Zm1,0a.19.19,0,0,1-.15-.29l0,0A.13.13,0,0,1,6.46,9h.45a.18.18,0,1,1,0,.36Zm1,0a.18.18,0,0,1-.14-.06.2.2,0,0,1,0-.25A.22.22,0,0,1,7.42,9h.44A.16.16,0,0,1,8,9.08a.2.2,0,0,1,0,.25.17.17,0,0,1-.14,0Z"/></svg>